<?xml version="1.0" encoding="utf-8"?>
<!-- Generator: Adobe Illustrator 22.1.0, SVG Export Plug-In . SVG Version: 6.00 Build 0)  -->
<svg version="1.1" id="Layer_1" xmlns="http://www.w3.org/2000/svg" xmlns:xlink="http://www.w3.org/1999/xlink" x="0px" y="0px"
	 viewBox="0 0 1440 628" style="enable-background:new 0 0 1440 628;" xml:space="preserve">
<style type="text/css">
	.st0{fill:none;}
	.st1{clip-path:url(#SVGID_2_);}
	.st2{fill:#F4F4F4;}
	.st3{opacity:0.1;fill:url(#SVGID_3_);enable-background:new    ;}
</style>
<pattern  y="628" width="114.1" height="112.5" patternUnits="userSpaceOnUse" id="SVGID_1" viewBox="6 -118.3 114.1 112.5" style="overflow:visible;">
	<g>
		<rect x="6" y="-118.3" class="st0" width="114.1" height="112.5"/>
		<g>
			<defs>
				<rect id="SVGID_1_" x="6" y="-118.3" width="114.1" height="112.5"/>
			</defs>
			<clipPath id="SVGID_2_">
				<use xlink:href="#SVGID_1_"  style="overflow:visible;"/>
			</clipPath>
			<g class="st1">
				<g>
					<path class="st2" d="M16.7-114.7c-2.1,0-3.9-1.7-3.9-3.9c0-1.1,0.4-2,1.1-2.7l0,0l0,0c0.2-0.2,0.3-0.3,0.5-0.4h0.1
						c0.3-0.2,0.5-0.4,0.7-0.4h0.1c0.2-0.1,0.4-0.2,0.7-0.2l0,0c0.2,0,0.5-0.1,0.7-0.1c0.3,0,0.5,0,0.7,0.1l0,0
						c0.2,0,0.4,0.1,0.7,0.2h0.1c0.2,0.1,0.4,0.2,0.6,0.3h0.1c0.2,0.1,0.4,0.3,0.5,0.4l0,0l0,0c0.7,0.7,1.1,1.7,1.1,2.7
						C20.6-116.4,18.9-114.7,16.7-114.7z M16.7-115.4c1.8,0,3.2-1.4,3.2-3.2c0-0.7-0.2-1.3-0.6-1.9c-0.3,0.6-0.8,1-1.4,1.2
						c0.4,0.3,0.6,0.8,0.6,1.3c0,1-0.8,1.8-1.8,1.8s-1.8-0.8-1.8-1.8c0-0.5,0.2-1,0.6-1.3c-0.6-0.3-1.1-0.7-1.4-1.2
						c-0.4,0.5-0.6,1.2-0.6,1.9C13.5-116.8,15-115.4,16.7-115.4z M18.6-121.1c-0.1-0.1-0.1-0.1-0.2-0.2c-0.1,0-0.1-0.1-0.2-0.1
						c-0.9-0.5-2.1-0.5-3,0c-0.1,0-0.1,0.1-0.2,0.1c0,0.1-0.1,0.2-0.2,0.2s-0.1,0.1-0.2,0.1c0.4,0.8,1.2,1.3,2.1,1.3
						c0.9,0,1.7-0.5,2.1-1.3C18.8-121,18.7-121,18.6-121.1z M16.7-118.9c-0.6,0-1.1,0.5-1.1,1.1c0,0.6,0.5,1.1,1.1,1.1
						s1.1-0.5,1.1-1.1C17.8-118.4,17.3-118.9,16.7-118.9z"/>
					<path class="st2" d="M26.6-116.1h-5c-0.2,0-0.4-0.2-0.4-0.4c0-0.2,0.2-0.4,0.4-0.4h5c0.2,0,0.4,0.2,0.4,0.4
						C27-116.3,26.8-116.1,26.6-116.1z"/>
					<path class="st2" d="M26.6-118.2h-5c-0.2,0-0.4-0.2-0.4-0.4s0.2-0.4,0.4-0.4h5c0.2,0,0.4,0.2,0.4,0.4S26.8-118.2,26.6-118.2z"
						/>
					<path class="st2" d="M18.5-112.6L18.5-112.6h-5.3c-1,0-1.8-0.8-1.8-1.8v-7.7c0-1,0.8-1.8,1.8-1.8h13.4c1,0,1.8,0.8,1.8,1.8v7.8
						c0,1-0.8,1.8-1.8,1.8H22l0,0 M22-113.2L22-113.2h4.6c0.6,0,1.1-0.5,1.1-1.1v-7.8c0-0.6-0.5-1.1-1.1-1.1H13.2
						c-0.6,0-1.1,0.5-1.1,1.1v7.8c0,0.6,0.5,1.1,1.1,1.1h5.3l0,0"/>
				</g>
				<path class="st2" d="M109.2-112.7c-3,0-5.5-2.4-5.5-5.5c0-3.1,2.4-5.5,5.5-5.5c3,0,5.5,2.4,5.5,5.5S112.3-112.7,109.2-112.7z
					 M109.2-122.7c-2.5,0-4.5,2-4.5,4.5s2,4.5,4.5,4.5s4.5-2,4.5-4.5S111.7-122.7,109.2-122.7z M110.6-116.8l-1.8-1.8l-0.7,0.7
					c-0.2,0.2-0.5,0.2-0.7,0c-0.2-0.2-0.2-0.5,0-0.7l1.1-1.1c0.2-0.2,0.5-0.2,0.7,0l2.1,2.1c0.2,0.2,0.2,0.5,0,0.7
					C111.1-116.6,110.7-116.6,110.6-116.8z"/>
				<path class="st2" d="M46.9-117c0,0.2-0.2,0.2-0.3,0.3c-0.4,0.2-0.4,0.9-0.5,1.3c-0.3,0.9-1,1.6-2.1,2v-2.4
					c0-0.2-0.2-0.4-0.4-0.4s-0.4,0.2-0.4,0.4v2.8c-0.2,0-0.5,0.1-0.7,0.1c-0.3,0-0.5,0-0.7-0.1v-2.8c0-0.2-0.2-0.4-0.4-0.4
					S41-116,41-115.8v2.4c-1-0.4-1.8-1.1-2.1-2c-0.1-0.4-0.1-1.1-0.5-1.3c-0.1-0.1-0.3-0.2-0.3-0.3l-0.1-1c0-0.1,0.1-0.3,0.3-0.3
					c0.1,0,0.3,0,0.4-0.1c0.1-2.6,0.8-5.3,3.9-5.3c3.2,0,3.8,2.7,3.9,5.3c0.1,0,0.2,0.1,0.4,0.1s0.3,0.2,0.3,0.3L46.9-117z
					 M42.5-122.9c-2,0-2.9,1.3-3.1,4.2c0.5-0.2,1.4-0.4,3.1-0.4c1.7,0,2.6,0.2,3.1,0.4C45.4-121.6,44.5-122.9,42.5-122.9z"/>
				<g>
					<path class="st2" d="M79.7-124.1c-0.1,0-0.2,0-0.3,0.1c-0.1,0.1-0.2,0.3-0.1,0.5l1.4,4.9c0,0.1,0.2,0.3,0.3,0.3l3.9,1.2l0.6-1
						l-1.1-3.5l4.1-1.4l-0.1,4.5l0,0c0,0,0.3,0.5,0.4,0.7l0,0l2.4,1.4c0.1,0,0.1,0.1,0.2,0.1c0.2,0,0.3-0.1,0.4-0.2l2.4-3.8
						c0.1-0.2,0.1-0.5-0.1-0.6l-4.9-3.1c0,0-0.1-0.1-0.3-0.1l0,0h-0.1c-0.1,0-4.4,1.5-4.9,1.7l-4-1.7
						C79.8-124.1,79.7-124.1,79.7-124.1L79.7-124.1z M80.4-122.8l3.1,1.3l1.1,3.3l-3.1-0.9L80.4-122.8z M89.4-122.8l3.8,2.4
						l-1.9,3.1l-2-1.2L89.4-122.8z"/>
					<path class="st2" d="M87-112.5c-1.2,0-2.2-1-2.2-2.2c0-0.3,0.1-0.7,0.2-1c0-0.1,1.8-2.8,1.8-2.8c0.1-0.1,0.2-0.1,0.3,0l1.8,2.8
						c0.1,0.3,0.2,0.7,0.2,1C89.2-113.5,88.2-112.5,87-112.5z M87-116c-0.7,0-1.3,0.6-1.3,1.3s0.6,1.3,1.3,1.3
						c0.7,0,1.3-0.6,1.3-1.3C88.3-115.4,87.7-116,87-116z"/>
				</g>
				<path class="st2" d="M69.6-118.4l-1.8,1.6v2.7h-2.1v-0.8l-2.3,2.1c-0.1,0.1-0.4,0.1-0.5,0l-6.2-5.7c-0.1-0.1-0.1-0.3,0-0.5
					l0.5-0.6c0.1-0.1,0.3-0.1,0.5,0l0.3,0.5v-3.8h-0.5v-1.2h11.1v1.2h-0.5v3.8l0.4-0.4c0.1-0.1,0.3-0.1,0.5,0l0.5,0.6
					C69.7-118.7,69.7-118.5,69.6-118.4z M64.3-119.2H62c-0.2,0-0.3-0.2-0.3-0.3v-3.3h-2.8v4.6l4,3.5c0.1,0.1,0.4,0.1,0.5,0l3.9-3.6
					v-4.6h-2.7v3.3C64.6-119.4,64.4-119.2,64.3-119.2z"/>
			</g>
			<g class="st1">
				<g>
					<path class="st2" d="M54.8-95.9c-2.1,0-3.9-1.7-3.9-3.9c0-1.1,0.4-2,1.1-2.7l0,0l0,0c0.2-0.2,0.3-0.3,0.5-0.4h0.1
						c0.2-0.1,0.4-0.2,0.6-0.3h0.1c0.2-0.1,0.4-0.2,0.7-0.2l0,0c0.2,0,0.5-0.1,0.7-0.1s0.5,0,0.7,0.1l0,0c0.2,0,0.4,0.1,0.7,0.2h0.1
						c0.2,0.1,0.4,0.2,0.6,0.3h0.1c0.2,0.1,0.4,0.3,0.5,0.4l0,0l0,0c0.7,0.7,1.1,1.7,1.1,2.7C58.6-97.7,56.9-95.9,54.8-95.9z
						 M54.8-96.6c1.8,0,3.2-1.4,3.2-3.2c0-0.7-0.2-1.3-0.6-1.9c-0.3,0.6-0.8,1-1.4,1.2c0.4,0.3,0.6,0.8,0.6,1.3c0,1-0.8,1.8-1.8,1.8
						S53-98.1,53-99.1c0-0.5,0.2-1,0.6-1.3c-0.6-0.3-1.1-0.7-1.4-1.2c-0.4,0.5-0.6,1.2-0.6,1.9C51.6-98,53-96.6,54.8-96.6z
						 M56.7-102.3c-0.1-0.1-0.1-0.1-0.2-0.2c-0.1,0-0.1-0.1-0.2-0.1c-0.9-0.5-2.1-0.5-3,0c-0.1,0-0.1,0.1-0.2,0.1
						c-0.1,0-0.2,0.1-0.2,0.2c-0.1,0-0.1,0.1-0.2,0.1c0.4,0.8,1.2,1.3,2.1,1.3s1.7-0.5,2.1-1.3C56.8-102.2,56.7-102.3,56.7-102.3z
						 M54.8-100.2c-0.6,0-1.1,0.5-1.1,1.1s0.5,1.1,1.1,1.1s1.1-0.5,1.1-1.1S55.3-100.2,54.8-100.2z"/>
					<path class="st2" d="M64.7-97.3h-5c-0.2,0-0.4-0.2-0.4-0.4c0-0.2,0.2-0.4,0.4-0.4h5c0.2,0,0.4,0.2,0.4,0.4
						C65-97.5,64.9-97.3,64.7-97.3z"/>
					<path class="st2" d="M64.7-99.4h-5c-0.2,0-0.4-0.2-0.4-0.4c0-0.2,0.2-0.4,0.4-0.4h5c0.2,0,0.4,0.2,0.4,0.4
						C65-99.6,64.9-99.4,64.7-99.4z"/>
					<path class="st2" d="M64.7-101.6h-5c-0.2,0-0.4-0.2-0.4-0.4s0.2-0.4,0.4-0.4h5c0.2,0,0.4,0.2,0.4,0.4
						C65-101.7,64.9-101.6,64.7-101.6z"/>
					<path class="st2" d="M56.5-93.8L56.5-93.8h-5.3c-1,0-1.8-0.8-1.8-1.8v-7.8c0-1,0.8-1.8,1.8-1.8h13.4c1,0,1.8,0.8,1.8,1.8v7.8
						c0,1-0.8,1.8-1.8,1.8H60l0,0 M60.1-94.5L60.1-94.5h4.6c0.6,0,1.1-0.5,1.1-1.1v-7.8c0-0.6-0.5-1.1-1.1-1.1H51.2
						c-0.6,0-1.1,0.5-1.1,1.1v7.8c0,0.6,0.5,1.1,1.1,1.1h5.3l0,0"/>
				</g>
				<g>
					<path class="st2" d="M80.5-103.3c-0.5,0-0.8,0.4-0.8,0.4c-0.2,0.2-0.1,0.4,0.2,0.4H81c0.3,0,0.4-0.2,0.2-0.4
						C81.3-102.9,81-103.3,80.5-103.3z"/>
					<path class="st2" d="M84.9-98.3c0,0.2-0.2,0.2-0.3,0.3c-0.4,0.2-0.4,0.9-0.5,1.3c-0.3,0.9-1,1.6-2.1,2v-2.4
						c0-0.2-0.2-0.4-0.4-0.4c-0.2,0-0.4,0.2-0.4,0.4v2.8c-0.2,0-0.5,0.1-0.7,0.1c-0.3,0-0.5,0-0.7-0.1v-2.8c0-0.2-0.2-0.4-0.4-0.4
						c-0.2,0-0.4,0.2-0.4,0.4v2.4c-1-0.4-1.8-1.1-2.1-2c-0.1-0.4-0.1-1.1-0.5-1.3c-0.1-0.1-0.3-0.2-0.3-0.3l-0.1-1
						c0-0.1,0.1-0.3,0.3-0.3c0.1,0,0.3,0,0.4-0.1c0.1-2.6,0.8-5.3,3.9-5.3c3.2,0,3.8,2.7,3.9,5.3c0.1,0,0.2,0.1,0.4,0.1
						c0.2,0,0.3,0.2,0.3,0.3L84.9-98.3z M80.5-104.1c-2,0-2.9,1.3-3.1,4.2c0.6-0.2,1.4-0.4,3.1-0.4s2.6,0.2,3.1,0.4
						C83.4-102.9,82.5-104.1,80.5-104.1z"/>
				</g>
				<path class="st2" d="M117.7-105.3c-0.1,0-0.2,0-0.3,0.1c-0.1,0.1-0.2,0.3-0.1,0.5l1.4,4.9c0,0.1,0.2,0.3,0.3,0.3l3.9,1.2l0.6-1
					l-1.1-3.5l4.1-1.4l-0.1,4.5l0,0c0,0,0.3,0.5,0.4,0.7l0,0l2.4,1.4c0.1,0,0.1,0.1,0.2,0.1c0.2,0,0.3-0.1,0.4-0.2l2.4-3.8
					c0.1-0.2,0.1-0.5-0.1-0.6l-4.9-3.1c0,0-0.1-0.1-0.3-0.1l0,0h-0.1c-0.1,0-4.4,1.5-4.9,1.7l-4-1.7
					C117.8-105.3,117.7-105.3,117.7-105.3L117.7-105.3z M118.4-104.1l3.1,1.3l1.1,3.3l-3.1-0.9L118.4-104.1z M127.4-104.1l3.8,2.4
					l-1.9,3.1l-2-1.2L127.4-104.1z"/>
				<path class="st2" d="M107.6-99.6l-1.8,1.6v2.7h-2.1v-0.8l-2.3,2.1c-0.1,0.1-0.4,0.1-0.5,0l-6.2-5.7c-0.1-0.1-0.1-0.3,0-0.5
					l0.5-0.6c0.1-0.1,0.3-0.1,0.5,0l0.4,0.4v-3.8h-0.5v-1.2h11.1v1.3h-0.5v3.8l0.4-0.4c0.1-0.1,0.3-0.1,0.5,0l0.5,0.6
					C107.7-100,107.7-99.8,107.6-99.6z M102.3-100.5H100c-0.2,0-0.3-0.2-0.3-0.3v-3.3h-2.8v4.6l3.9,3.6c0.1,0.1,0.4,0.1,0.5,0
					l3.9-3.6v-4.6h-2.7v3.3C102.6-100.6,102.5-100.5,102.3-100.5z"/>
			</g>
			<g class="st1">
				<path class="st2" d="M33.2-94c-3,0-5.5-2.4-5.5-5.5c0-3.1,2.4-5.5,5.5-5.5s5.5,2.4,5.5,5.5C38.7-96.4,36.2-94,33.2-94z
					 M33.2-103.9c-2.5,0-4.5,2-4.5,4.5s2,4.5,4.5,4.5s4.5-2,4.5-4.5S35.7-103.9,33.2-103.9z M34.5-98.1l-1.8-1.8l-0.6,0.8
					c-0.2,0.2-0.5,0.2-0.7,0s-0.2-0.5,0-0.7l1.1-1.1c0.2-0.2,0.5-0.2,0.7,0l2.1,2.1c0.2,0.2,0.2,0.5,0,0.7
					C35-97.9,34.7-97.9,34.5-98.1z"/>
				<g>
					<path class="st2" d="M3.6-105.3c-0.1,0-0.2,0-0.3,0.1c-0.1,0.1-0.2,0.3-0.1,0.5l1.4,4.9c0,0.1,0.2,0.3,0.3,0.3l3.9,1.2l0.6-1
						l-1.1-3.5l4.1-1.4l-0.1,4.5l0,0c0,0,0.3,0.5,0.4,0.7l0,0l2.4,1.4c0.1,0,0.1,0.1,0.2,0.1c0.2,0,0.3-0.1,0.4-0.2l2.4-3.8
						c0.1-0.2,0.1-0.5-0.1-0.6l-4.9-3.1c0,0-0.1-0.1-0.3-0.1l0,0h-0.1c-0.1,0-4.4,1.5-4.9,1.7l-4-1.7C3.7-105.3,3.7-105.3,3.6-105.3
						L3.6-105.3z M4.3-104.1l3.1,1.3l1.1,3.3l-3.1-0.9L4.3-104.1z M13.3-104.1l3.8,2.4l-1.9,3.1l-2-1.2L13.3-104.1z"/>
					<path class="st2" d="M11-93.8c-1.2,0-2.2-1-2.2-2.2c0-0.3,0.1-0.7,0.2-1c0-0.1,1.8-2.8,1.8-2.8c0.1-0.1,0.2-0.1,0.3,0l1.8,2.8
						c0.1,0.3,0.2,0.7,0.2,1C13.2-94.8,12.2-93.8,11-93.8z M11-97.2c-0.7,0-1.3,0.6-1.3,1.3c0,0.7,0.6,1.3,1.3,1.3s1.3-0.6,1.3-1.3
						C12.2-96.7,11.7-97.2,11-97.2z"/>
				</g>
			</g>
			<g class="st1">
				<g>
					<path class="st2" d="M92.8-77.2c-2.1,0-3.9-1.7-3.9-3.9c0-1.1,0.4-2,1.1-2.7l0,0l0,0c0.2-0.2,0.3-0.3,0.5-0.4h0.1
						c0.2-0.1,0.4-0.2,0.6-0.3h0.1c0.2-0.1,0.4-0.2,0.7-0.2l0,0c0.2,0,0.5-0.1,0.7-0.1s0.5,0,0.7,0.1l0,0c0.2,0,0.4,0.1,0.7,0.2h0.1
						c0.2,0.1,0.4,0.2,0.6,0.3h0.1c0.2,0.1,0.4,0.3,0.5,0.4l0,0l0,0c0.7,0.7,1.1,1.7,1.1,2.7C96.7-78.9,94.9-77.2,92.8-77.2z
						 M92.8-77.9c1.8,0,3.2-1.4,3.2-3.2c0-0.7-0.2-1.3-0.6-1.9c-0.3,0.6-0.8,1-1.4,1.2c0.4,0.3,0.6,0.8,0.6,1.3c0,1-0.8,1.8-1.8,1.8
						S91-79.5,91-80.5c0-0.5,0.2-1,0.6-1.3c-0.6-0.3-1.1-0.7-1.4-1.2c-0.4,0.5-0.6,1.2-0.6,1.9C89.6-79.3,91-77.9,92.8-77.9z
						 M94.7-83.6c-0.1-0.1-0.1-0.1-0.2-0.2c-0.1,0-0.1-0.1-0.2-0.1c-0.9-0.5-2.1-0.5-3,0c-0.1,0-0.1,0.1-0.2,0.1s-0.2,0.1-0.2,0.2
						c-0.1,0-0.1,0.1-0.2,0.1c0.4,0.8,1.2,1.3,2.1,1.3s1.7-0.5,2.1-1.3C94.8-83.5,94.7-83.5,94.7-83.6z M92.8-81.4
						c-0.6,0-1.1,0.5-1.1,1.1c0,0.6,0.5,1.1,1.1,1.1s1.1-0.5,1.1-1.1C93.9-80.9,93.4-81.4,92.8-81.4z"/>
					<path class="st2" d="M102.7-78.6h-5c-0.2,0-0.4-0.2-0.4-0.4s0.2-0.4,0.4-0.4h5c0.2,0,0.4,0.2,0.4,0.4
						C103-78.7,102.9-78.6,102.7-78.6z"/>
					<path class="st2" d="M102.7-80.7h-5c-0.2,0-0.4-0.2-0.4-0.4s0.2-0.4,0.4-0.4h5c0.2,0,0.4,0.2,0.4,0.4
						C103-80.9,102.9-80.7,102.7-80.7z"/>
					<path class="st2" d="M102.7-82.8h-5c-0.2,0-0.4-0.2-0.4-0.4c0-0.2,0.2-0.4,0.4-0.4h5c0.2,0,0.4,0.2,0.4,0.4
						C103-83,102.9-82.8,102.7-82.8z"/>
					<path class="st2" d="M94.5-75.1L94.5-75.1h-5.3c-1,0-1.8-0.8-1.8-1.8v-7.8c0-1,0.8-1.8,1.8-1.8h13.4c1,0,1.8,0.8,1.8,1.8v7.8
						c0,1-0.8,1.8-1.8,1.8H98l0,0 M98.1-75.7L98.1-75.7h4.6c0.6,0,1.1-0.5,1.1-1.1v-7.8c0-0.6-0.5-1.1-1.1-1.1H89.2
						c-0.6,0-1.1,0.5-1.1,1.1v7.8c0,0.6,0.5,1.1,1.1,1.1h5.3l0,0"/>
				</g>
				<g>
					<path class="st2" d="M118.5-84.6c-0.5,0-0.8,0.4-0.8,0.4c-0.2,0.2-0.1,0.4,0.2,0.4h1.1c0.3,0,0.4-0.2,0.2-0.4
						C119.3-84.2,119-84.6,118.5-84.6z"/>
					<path class="st2" d="M123-79.5c0,0.2-0.2,0.2-0.3,0.3c-0.4,0.2-0.4,0.9-0.5,1.3c-0.3,0.9-1,1.6-2.1,2v-2.4
						c0-0.2-0.2-0.4-0.4-0.4c-0.2,0-0.4,0.2-0.4,0.4v2.8c-0.2,0-0.5,0.1-0.7,0.1c-0.3,0-0.5,0-0.7-0.1v-2.8c0-0.2-0.2-0.4-0.4-0.4
						c-0.2,0-0.4,0.2-0.4,0.4v2.4c-1-0.4-1.8-1.1-2.1-2c-0.1-0.4-0.1-1.1-0.5-1.3c-0.1-0.1-0.3-0.2-0.3-0.3l-0.1-1
						c0-0.1,0.1-0.3,0.3-0.3c0.1,0,0.3,0,0.4-0.1c0.1-2.6,0.8-5.3,3.9-5.3c3.2,0,3.8,2.7,3.9,5.3c0.1,0,0.2,0.1,0.4,0.1
						c0.2,0,0.3,0.2,0.3,0.3L123-79.5z M118.5-85.4c-2,0-2.9,1.3-3.1,4.2c0.6-0.2,1.4-0.4,3.1-0.4s2.6,0.2,3.1,0.4
						C121.5-84.1,120.5-85.4,118.5-85.4z"/>
				</g>
			</g>
			<g class="st1">
				<path class="st2" d="M71.2-75.2c-3,0-5.5-2.4-5.5-5.5s2.4-5.5,5.5-5.5c3,0,5.5,2.4,5.5,5.5S74.2-75.2,71.2-75.2z M71.2-85.1
					c-2.5,0-4.5,2-4.5,4.5s2,4.5,4.5,4.5s4.5-2,4.5-4.5S73.7-85.1,71.2-85.1z M72.5-79.3l-1.7-1.8l-0.7,0.7c-0.2,0.2-0.5,0.2-0.7,0
					c-0.2-0.2-0.2-0.5,0-0.7l1.1-1.1c0.2-0.2,0.5-0.2,0.7,0l2.1,2.1c0.2,0.2,0.2,0.5,0,0.7C73-79.1,72.7-79.1,72.5-79.3z"/>
				<path class="st2" d="M8.9-79.5c0,0.2-0.2,0.2-0.3,0.3c-0.4,0.2-0.4,0.9-0.5,1.3c-0.3,0.9-1,1.6-2.1,2v-2.4
					c0-0.2-0.2-0.4-0.4-0.4c-0.2,0-0.4,0.2-0.4,0.4v2.8c-0.2,0-0.5,0.1-0.7,0.1c-0.3,0-0.5,0-0.7-0.1v-2.8c0-0.2-0.2-0.4-0.4-0.4
					S3-78.5,3-78.3v2.4c-1-0.4-1.8-1.1-2.1-2c-0.1-0.4-0.1-1.1-0.5-1.3c-0.1-0.1-0.3-0.2-0.3-0.3l-0.1-1c0-0.1,0.1-0.3,0.3-0.3
					c0.1,0,0.3,0,0.4-0.1c0.1-2.6,0.8-5.3,3.9-5.3c3.2,0,3.8,2.7,3.9,5.3c0.1,0,0.2,0.1,0.4,0.1s0.3,0.2,0.3,0.3L8.9-79.5z
					 M4.5-85.4c-2,0-2.9,1.3-3.1,4.2c0.6-0.2,1.4-0.4,3.1-0.4s2.6,0.2,3.1,0.4C7.4-84.1,6.5-85.4,4.5-85.4z"/>
				<g>
					<path class="st2" d="M41.6-86.6c-0.1,0-0.2,0-0.3,0.1s-0.2,0.3-0.1,0.5l1.4,4.9c0,0.1,0.2,0.3,0.3,0.3l3.9,1.2l0.6-1l-1-3.5
						l4.1-1.4L50.4-81l0,0c0,0,0.3,0.5,0.4,0.7l0,0l2.4,1.4c0.1,0,0.1,0.1,0.2,0.1c0.2,0,0.3-0.1,0.4-0.2l2.4-3.8
						c0.1-0.2,0.1-0.5-0.1-0.6l-4.9-3.1c0,0-0.1-0.1-0.3-0.1l0,0h-0.1c-0.1,0-4.4,1.5-4.9,1.7l-4-1.7C41.8-86.6,41.7-86.6,41.6-86.6
						L41.6-86.6z M42.4-85.3l3.1,1.3l1.1,3.3l-3.1-0.9L42.4-85.3z M51.3-85.3l3.8,2.4l-1.9,3.1l-2-1.2L51.3-85.3z"/>
					<path class="st2" d="M49-75c-1.2,0-2.2-1-2.2-2.2c0-0.3,0.1-0.7,0.2-1c0-0.1,1.8-2.8,1.8-2.8c0.1-0.1,0.2-0.1,0.3,0l1.8,2.8
						c0.1,0.3,0.2,0.7,0.2,1C51.2-76,50.2-75,49-75z M49-78.5c-0.7,0-1.3,0.6-1.3,1.3c0,0.7,0.6,1.3,1.3,1.3s1.3-0.6,1.3-1.3
						C50.3-77.9,49.7-78.5,49-78.5z"/>
				</g>
				<path class="st2" d="M31.6-80.9l-1.8,1.6v2.7h-2.1v-0.8l-2.3,2.1c-0.1,0.1-0.4,0.1-0.5,0L18.7-81c-0.1-0.1-0.1-0.3,0-0.5
					l0.5-0.6c0.1-0.1,0.3-0.1,0.5,0l0.4,0.4v-3.8h-0.5v-1.2h11.1v1.2h-0.5v3.8l0.4-0.4c0.1-0.1,0.3-0.1,0.5,0l0.5,0.6
					C31.7-81.2,31.7-81,31.6-80.9z M26.2-81.7h-2.3c-0.2,0-0.3-0.2-0.3-0.3v-3.3h-2.7v4.6l3.9,3.6c0.1,0.1,0.4,0.1,0.5,0l3.9-3.6
					v-4.6h-2.7v3.2C26.6-81.9,26.4-81.7,26.2-81.7z"/>
			</g>
			<g class="st1">
				<g>
					<path class="st2" d="M16.7-58.4c-2.1,0-3.9-1.7-3.9-3.9c0-1.1,0.4-2,1.1-2.7l0,0l0,0c0.2-0.2,0.3-0.3,0.5-0.4h0.1
						c0.2-0.1,0.4-0.2,0.6-0.3h0.1c0.2-0.1,0.4-0.2,0.7-0.2l0,0c0.2,0,0.5-0.1,0.7-0.1c0.3,0,0.5,0,0.7,0.1l0,0
						c0.2,0,0.4,0.1,0.7,0.2h0.1c0.2,0.1,0.4,0.2,0.6,0.3h0.1c0.2,0.1,0.4,0.3,0.5,0.4l0,0l0,0c0.7,0.7,1.1,1.7,1.1,2.7
						C20.6-60.1,18.9-58.4,16.7-58.4z M16.7-59.1c1.8,0,3.2-1.4,3.2-3.2c0-0.7-0.2-1.3-0.6-1.9c-0.3,0.6-0.8,1-1.4,1.2
						c0.4,0.3,0.6,0.8,0.6,1.3c0,1-0.8,1.8-1.8,1.8s-1.8-0.8-1.8-1.8c0-0.5,0.2-1,0.6-1.3c-0.6-0.3-1.1-0.7-1.4-1.2
						c-0.4,0.5-0.6,1.2-0.6,1.9C13.5-60.5,15-59.1,16.7-59.1z M18.6-64.8c-0.1-0.1-0.1-0.1-0.2-0.2c-0.1,0-0.1-0.1-0.2-0.1
						c-0.9-0.5-2.1-0.5-3,0c-0.1,0-0.1,0.1-0.2,0.1c-0.1,0-0.2,0.1-0.2,0.2c-0.1,0-0.1,0.1-0.2,0.1c0.4,0.8,1.2,1.3,2.1,1.3
						c0.9,0,1.7-0.5,2.1-1.3C18.8-64.7,18.7-64.8,18.6-64.8z M16.7-62.6c-0.6,0-1.1,0.5-1.1,1.1s0.5,1.1,1.1,1.1s1.1-0.5,1.1-1.1
						C17.8-62.2,17.3-62.6,16.7-62.6z"/>
					<path class="st2" d="M26.6-59.8h-5c-0.2,0-0.4-0.2-0.4-0.4s0.2-0.4,0.4-0.4h5c0.2,0,0.4,0.2,0.4,0.4C27-60,26.8-59.8,26.6-59.8
						z"/>
					<path class="st2" d="M26.6-61.9h-5c-0.2,0-0.4-0.2-0.4-0.4s0.2-0.4,0.4-0.4h5c0.2,0,0.4,0.2,0.4,0.4S26.8-61.9,26.6-61.9z"/>
					<path class="st2" d="M26.6-64.1h-5c-0.2,0-0.4-0.2-0.4-0.4s0.2-0.4,0.4-0.4h5c0.2,0,0.4,0.2,0.4,0.4
						C27-64.2,26.8-64.1,26.6-64.1z"/>
					<path class="st2" d="M18.5-56.3L18.5-56.3h-5.3c-1,0-1.8-0.8-1.8-1.8v-7.8c0-1,0.8-1.8,1.8-1.8h13.4c1,0,1.8,0.8,1.8,1.8v7.8
						c0,1-0.8,1.8-1.8,1.8H22l0,0 M22-57L22-57h4.6c0.6,0,1.1-0.5,1.1-1.1v-7.8c0-0.6-0.5-1.1-1.1-1.1H13.2c-0.6,0-1.1,0.5-1.1,1.1
						v7.8c0,0.6,0.5,1.1,1.1,1.1h5.3l0,0"/>
				</g>
				<path class="st2" d="M109.2-56.4c-3,0-5.5-2.4-5.5-5.5c0-3,2.4-5.5,5.5-5.5c3,0,5.5,2.4,5.5,5.5
					C114.7-58.9,112.3-56.4,109.2-56.4z M109.2-66.4c-2.5,0-4.5,2-4.5,4.5s2,4.5,4.5,4.5s4.5-2,4.5-4.5
					C113.7-64.4,111.7-66.4,109.2-66.4z M110.6-60.6l-1.8-1.8l-0.7,0.7c-0.2,0.2-0.5,0.2-0.7,0s-0.2-0.5,0-0.7l1.1-1.1
					c0.2-0.2,0.5-0.2,0.7,0l2.1,2.1c0.2,0.2,0.2,0.5,0,0.7C111.1-60.4,110.7-60.4,110.6-60.6z"/>
				<g>
					<path class="st2" d="M42.5-65.8c-0.5,0-0.8,0.4-0.8,0.4c-0.2,0.2-0.1,0.4,0.2,0.4H43c0.3,0,0.4-0.2,0.2-0.4
						C43.3-65.4,43-65.8,42.5-65.8z"/>
					<path class="st2" d="M46.9-60.8c0,0.2-0.2,0.2-0.3,0.3c-0.4,0.2-0.4,0.9-0.5,1.3c-0.3,0.9-1,1.6-2.1,2v-2.4
						c0-0.2-0.2-0.4-0.4-0.4s-0.4,0.2-0.4,0.4v2.8c-0.2,0-0.5,0.1-0.7,0.1c-0.3,0-0.5,0-0.7-0.1v-2.8c0-0.2-0.2-0.4-0.4-0.4
						S41-59.8,41-59.6v2.5c-1-0.4-1.8-1.1-2.1-2c-0.1-0.4-0.1-1.1-0.5-1.3c-0.1-0.1-0.3-0.2-0.3-0.3l-0.1-1c0-0.1,0.1-0.3,0.3-0.3
						c0.1,0,0.3,0,0.4-0.1c0.1-2.6,0.8-5.3,3.9-5.3c3.2,0,3.8,2.7,3.9,5.3c0.1,0,0.2,0.1,0.4,0.1s0.3,0.2,0.3,0.3L46.9-60.8z
						 M42.5-66.6c-2,0-2.9,1.3-3.1,4.2c0.6-0.2,1.4-0.4,3.1-0.4c1.7,0,2.6,0.2,3.1,0.4C45.4-65.4,44.5-66.6,42.5-66.6z"/>
				</g>
				<g>
					<path class="st2" d="M79.7-67.8c-0.1,0-0.2,0-0.3,0.1c-0.1,0.1-0.2,0.3-0.1,0.5l1.4,4.9c0,0.1,0.2,0.3,0.3,0.3l3.9,1.2l0.6-1
						l-1.1-3.5l4.1-1.4l-0.1,4.5l0,0c0,0,0.3,0.5,0.4,0.7l0,0l2.4,1.4c0.1,0,0.1,0.1,0.2,0.1c0.2,0,0.3-0.1,0.4-0.2l2.4-3.8
						c0.1-0.2,0.1-0.5-0.1-0.6l-4.9-3.1c0,0-0.1-0.1-0.3-0.1l0,0h-0.1c-0.1,0-4.4,1.5-4.9,1.7l-4-1.7C79.8-67.8,79.7-67.8,79.7-67.8
						L79.7-67.8z M80.4-66.6l3.1,1.3l1.1,3.3l-3.1-0.9L80.4-66.6z M89.4-66.5l3.8,2.4L91.3-61l-2-1.2L89.4-66.5z"/>
					<path class="st2" d="M87-56.3c-1.2,0-2.2-1-2.2-2.2c0-0.3,0.1-0.7,0.2-1c0-0.1,1.8-2.8,1.8-2.8c0.1-0.1,0.2-0.1,0.3,0l1.8,2.8
						c0.1,0.3,0.2,0.7,0.2,1C89.2-57.3,88.2-56.3,87-56.3z M87-59.7c-0.7,0-1.3,0.6-1.3,1.3c0,0.7,0.6,1.3,1.3,1.3
						c0.7,0,1.3-0.6,1.3-1.3C88.3-59.2,87.7-59.7,87-59.7z"/>
				</g>
				<path class="st2" d="M69.6-62.1l-1.8,1.6v2.7h-2.1v-0.8l-2.3,2.1c-0.1,0.1-0.4,0.1-0.5,0l-6.2-5.6c-0.1-0.1-0.1-0.3,0-0.5
					l0.5-0.6c0.1-0.1,0.3-0.1,0.5,0l0.4,0.4v-3.8h-0.5v-1.2h11.1v1.2h-0.5v3.8l0.4-0.4c0.1-0.1,0.3-0.1,0.5,0l0.5,0.6
					C69.7-62.5,69.7-62.2,69.6-62.1z M64.3-63H62c-0.2,0-0.3-0.2-0.3-0.3v-3.3h-2.8v4.6l3.9,3.6c0.1,0.1,0.4,0.1,0.5,0l3.9-3.6v-4.6
					h-2.7v3.3C64.6-63.1,64.4-63,64.3-63z"/>
			</g>
			<g class="st1">
				<g>
					<path class="st2" d="M54.8-39.6c-2.1,0-3.9-1.7-3.9-3.9c0-1.1,0.4-2,1.1-2.7l0,0l0,0c0.2-0.2,0.3-0.3,0.5-0.4h0.1
						c0.2-0.1,0.4-0.2,0.6-0.3h0.1c0.2-0.1,0.4-0.2,0.7-0.2l0,0c0.2,0,0.5-0.1,0.7-0.1s0.5,0,0.7,0.1l0,0c0.2,0,0.4,0.1,0.7,0.2h0.1
						c0.2,0.1,0.4,0.2,0.6,0.3h0.1c0.2,0.1,0.4,0.3,0.5,0.4l0,0l0,0c0.7,0.7,1.1,1.7,1.1,2.7C58.6-41.4,56.9-39.6,54.8-39.6z
						 M54.8-40.3c1.8,0,3.2-1.4,3.2-3.2c0-0.7-0.2-1.3-0.6-1.9c-0.3,0.6-0.8,1-1.4,1.2c0.4,0.3,0.6,0.8,0.6,1.3c0,1-0.8,1.8-1.8,1.8
						S53-41.9,53-42.9c0-0.5,0.2-1,0.6-1.3c-0.6-0.3-1.1-0.7-1.4-1.2c-0.4,0.5-0.6,1.2-0.6,1.9C51.6-41.8,53-40.3,54.8-40.3z
						 M56.7-46.1c-0.1-0.1-0.1-0.1-0.2-0.2c-0.1,0-0.1-0.1-0.2-0.1c-0.9-0.5-2.1-0.5-3,0c-0.1,0-0.1,0.1-0.2,0.1
						c-0.1,0-0.2,0.1-0.2,0.2c-0.1,0-0.1,0.1-0.2,0.1c0.4,0.8,1.2,1.3,2.1,1.3s1.7-0.5,2.1-1.3C56.8-46,56.7-46,56.7-46.1z
						 M54.8-43.9c-0.6,0-1.1,0.5-1.1,1.1s0.5,1.1,1.1,1.1s1.1-0.5,1.1-1.1S55.3-43.9,54.8-43.9z"/>
					<path class="st2" d="M64.7-41.1h-5c-0.2,0-0.4-0.2-0.4-0.4c0-0.2,0.2-0.4,0.4-0.4h5c0.2,0,0.4,0.2,0.4,0.4
						C65-41.2,64.9-41.1,64.7-41.1z"/>
					<path class="st2" d="M64.7-43.2h-5c-0.2,0-0.4-0.2-0.4-0.4s0.2-0.4,0.4-0.4h5c0.2,0,0.4,0.2,0.4,0.4S64.9-43.2,64.7-43.2z"/>
					<path class="st2" d="M64.7-45.3h-5c-0.2,0-0.4-0.2-0.4-0.4c0-0.2,0.2-0.4,0.4-0.4h5c0.2,0,0.4,0.2,0.4,0.4
						C65-45.5,64.9-45.3,64.7-45.3z"/>
					<path class="st2" d="M56.5-37.5L56.5-37.5h-5.3c-1,0-1.8-0.8-1.8-1.8v-7.8c0-1,0.8-1.8,1.8-1.8h13.4c1,0,1.8,0.8,1.8,1.8v7.8
						c0,1-0.8,1.8-1.8,1.8H60l0,0 M60.1-38.2L60.1-38.2h4.6c0.6,0,1.1-0.5,1.1-1.1v-7.8c0-0.6-0.5-1.1-1.1-1.1H51.2
						c-0.6,0-1.1,0.5-1.1,1.1v7.8c0,0.6,0.5,1.1,1.1,1.1h5.3l0,0"/>
				</g>
				<g>
					<path class="st2" d="M80.5-47.1c-0.5,0-0.8,0.4-0.8,0.4c-0.2,0.2-0.1,0.4,0.2,0.4H81c0.3,0,0.4-0.2,0.2-0.4
						C81.3-46.7,81-47.1,80.5-47.1z"/>
					<path class="st2" d="M84.9-42c0,0.2-0.2,0.2-0.3,0.3c-0.4,0.2-0.4,0.9-0.5,1.3c-0.3,0.9-1,1.6-2.1,2v-2.4
						c0-0.2-0.2-0.4-0.4-0.4c-0.2,0-0.4,0.2-0.4,0.4v2.8c-0.2,0-0.5,0.1-0.7,0.1c-0.3,0-0.5,0-0.7-0.1v-2.8c0-0.2-0.2-0.4-0.4-0.4
						c-0.2,0-0.4,0.2-0.4,0.4v2.4c-1-0.4-1.8-1.1-2.1-2c-0.1-0.4-0.1-1.1-0.5-1.3c-0.1-0.1-0.3-0.2-0.3-0.3L76-43
						c0-0.1,0.1-0.3,0.3-0.3c0.1,0,0.3,0,0.4-0.1c0.1-2.6,0.8-5.3,3.9-5.3c3.2,0,3.8,2.7,3.9,5.3c0.1,0,0.2,0.1,0.4,0.1
						c0.2,0,0.3,0.2,0.3,0.3L84.9-42z M80.5-47.9c-2,0-2.9,1.3-3.1,4.2c0.6-0.2,1.4-0.4,3.1-0.4s2.6,0.2,3.1,0.4
						C83.4-46.6,82.5-47.9,80.5-47.9z"/>
				</g>
				<path class="st2" d="M117.7-49.1c-0.1,0-0.2,0-0.3,0.1c-0.1,0.1-0.2,0.3-0.1,0.5l1.4,4.9c0,0.1,0.2,0.3,0.3,0.3l3.9,1.2l0.6-1
					l-1.1-3.5l4.1-1.4l-0.1,4.5l0,0c0,0,0.3,0.5,0.4,0.7l0,0l2.4,1.4c0.1,0,0.1,0.1,0.2,0.1c0.2,0,0.3-0.1,0.4-0.2l2.4-3.8
					c0.1-0.2,0.1-0.5-0.1-0.6l-4.9-3.1c0,0-0.1-0.1-0.3-0.1l0,0h-0.1c-0.1,0-4.4,1.5-4.9,1.7l-4-1.7
					C117.8-49.1,117.7-49.1,117.7-49.1L117.7-49.1z M118.4-47.8l3.1,1.3l1.1,3.3l-3.1-0.9L118.4-47.8z M127.4-47.8l3.8,2.4l-1.9,3.1
					l-2-1.2L127.4-47.8z"/>
				<path class="st2" d="M107.6-43.4l-1.8,1.6v2.7h-2.1v-0.8l-2.3,2.1c-0.1,0.1-0.4,0.1-0.5,0l-6.2-5.7c-0.1-0.1-0.1-0.3,0-0.5
					l0.5-0.6c0.1-0.1,0.3-0.1,0.5,0l0.4,0.4V-48h-0.5v-1.2h11.1v1.2h-0.5v3.9l0.4-0.4c0.1-0.1,0.3-0.1,0.5,0l0.5,0.6
					C107.7-43.7,107.7-43.5,107.6-43.4z M102.3-44.2H100c-0.2,0-0.3-0.2-0.3-0.3v-3.3h-2.8v4.6l3.9,3.6c0.1,0.1,0.4,0.1,0.5,0
					l3.9-3.6v-4.6h-2.7v3.3C102.6-44.4,102.5-44.2,102.3-44.2z"/>
			</g>
			<g class="st1">
				<path class="st2" d="M33.2-37.7c-3,0-5.5-2.4-5.5-5.5s2.4-5.5,5.5-5.5s5.5,2.4,5.5,5.5S36.2-37.7,33.2-37.7z M33.2-47.6
					c-2.5,0-4.5,2-4.5,4.5s2,4.5,4.5,4.5s4.5-2,4.5-4.5S35.7-47.6,33.2-47.6z M34.5-41.8l-1.8-1.8L32-42.9c-0.2,0.2-0.5,0.2-0.7,0
					s-0.2-0.5,0-0.7l1.1-1.1c0.2-0.2,0.5-0.2,0.7,0l2.1,2.1c0.2,0.2,0.2,0.5,0,0.7C35-41.6,34.7-41.6,34.5-41.8z"/>
				<g>
					<path class="st2" d="M3.6-49.1c-0.1,0-0.2,0-0.3,0.1s-0.2,0.3-0.1,0.5l1.4,4.9c0,0.1,0.2,0.3,0.3,0.3l3.9,1.2l0.6-1l-1.1-3.5
						l4.1-1.4l-0.1,4.5l0,0c0,0,0.3,0.5,0.4,0.7l0,0l2.4,1.4c0.1,0,0.1,0.1,0.2,0.1c0.2,0,0.3-0.1,0.4-0.2l2.4-3.8
						c0.1-0.2,0.1-0.5-0.1-0.6L13.1-49c0,0-0.1-0.1-0.3-0.1l0,0h-0.1c-0.1,0-4.4,1.5-4.9,1.7l-4-1.7C3.7-49.1,3.7-49.1,3.6-49.1
						L3.6-49.1z M4.3-47.8l3.1,1.3l1.1,3.3l-3.1-0.9L4.3-47.8z M13.3-47.8l3.8,2.4l-1.9,3.1l-2-1.2L13.3-47.8z"/>
					<path class="st2" d="M11-37.5c-1.2,0-2.2-1-2.2-2.2c0-0.3,0.1-0.7,0.2-1c0-0.1,1.8-2.8,1.8-2.8c0.1-0.1,0.2-0.1,0.3,0l1.8,2.8
						c0.1,0.3,0.2,0.7,0.2,1C13.2-38.5,12.2-37.5,11-37.5z M11-41c-0.7,0-1.3,0.6-1.3,1.3c0,0.7,0.6,1.3,1.3,1.3s1.3-0.6,1.3-1.3
						C12.2-40.4,11.7-41,11-41z"/>
				</g>
			</g>
			<g class="st1">
				<g>
					<path class="st2" d="M92.8-20.9c-2.1,0-3.9-1.7-3.9-3.9c0-1.1,0.4-2,1.1-2.7l0,0l0,0c0.2-0.2,0.3-0.3,0.5-0.4h0.1
						c0.2-0.1,0.4-0.2,0.6-0.3h0.1c0.2-0.1,0.4-0.2,0.7-0.2l0,0c0.2,0,0.5-0.1,0.7-0.1s0.5,0,0.7,0.1l0,0c0.2,0,0.4,0.1,0.7,0.2h0.1
						c0.2,0.1,0.4,0.2,0.6,0.3h0.1c0.2,0.1,0.4,0.3,0.5,0.4l0,0l0,0c0.7,0.7,1.1,1.7,1.1,2.7C96.7-22.6,94.9-20.9,92.8-20.9z
						 M92.8-21.6c1.8,0,3.2-1.4,3.2-3.2c0-0.7-0.2-1.3-0.6-1.9c-0.3,0.6-0.8,1-1.4,1.2c0.4,0.3,0.6,0.8,0.6,1.3c0,1-0.8,1.8-1.8,1.8
						S91-23.2,91-24.2c0-0.5,0.2-1,0.6-1.3c-0.6-0.3-1.1-0.7-1.4-1.2c-0.4,0.5-0.6,1.2-0.6,1.9C89.6-23,91-21.6,92.8-21.6z
						 M94.7-27.3c-0.1-0.1-0.1-0.1-0.2-0.2c-0.1,0-0.1-0.1-0.2-0.1c-0.9-0.5-2.1-0.5-3,0c-0.1,0-0.1,0.1-0.2,0.1s-0.2,0.1-0.2,0.2
						c-0.1,0-0.1,0.1-0.2,0.1c0.4,0.8,1.2,1.3,2.1,1.3s1.7-0.5,2.1-1.3C94.8-27.2,94.7-27.3,94.7-27.3z M92.8-25.1
						c-0.6,0-1.1,0.5-1.1,1.1s0.5,1.1,1.1,1.1s1.1-0.5,1.1-1.1S93.4-25.1,92.8-25.1z"/>
					<path class="st2" d="M102.7-22.3h-5c-0.2,0-0.4-0.2-0.4-0.4s0.2-0.4,0.4-0.4h5c0.2,0,0.4,0.2,0.4,0.4S102.9-22.3,102.7-22.3z"
						/>
					<path class="st2" d="M102.7-24.4h-5c-0.2,0-0.4-0.2-0.4-0.4c0-0.2,0.2-0.4,0.4-0.4h5c0.2,0,0.4,0.2,0.4,0.4
						C103-24.6,102.9-24.4,102.7-24.4z"/>
					<path class="st2" d="M102.7-26.5h-5c-0.2,0-0.4-0.2-0.4-0.4s0.2-0.4,0.4-0.4h5c0.2,0,0.4,0.2,0.4,0.4S102.9-26.5,102.7-26.5z"
						/>
					<path class="st2" d="M94.5-18.8L94.5-18.8h-5.3c-1,0-1.8-0.8-1.8-1.8v-7.8c0-1,0.8-1.8,1.8-1.8h13.4c1,0,1.8,0.8,1.8,1.8v7.8
						c0,1-0.8,1.8-1.8,1.8H98l0,0 M98.1-19.4L98.1-19.4h4.6c0.6,0,1.1-0.5,1.1-1.1v-7.8c0-0.6-0.5-1.1-1.1-1.1H89.2
						c-0.6,0-1.1,0.5-1.1,1.1v7.8c0,0.6,0.5,1.1,1.1,1.1h5.3l0,0"/>
				</g>
				<g>
					<path class="st2" d="M118.5-28.3c-0.5,0-0.8,0.4-0.8,0.4c-0.2,0.2-0.1,0.4,0.2,0.4h1.1c0.3,0,0.4-0.2,0.2-0.4
						C119.3-27.9,119-28.3,118.5-28.3z"/>
					<path class="st2" d="M123-23.3c0,0.2-0.2,0.2-0.3,0.3c-0.4,0.2-0.4,0.9-0.5,1.3c-0.3,0.9-1,1.6-2.1,2v-2.4
						c0-0.2-0.2-0.4-0.4-0.4c-0.2,0-0.4,0.2-0.4,0.4v2.8c-0.2,0-0.5,0.1-0.7,0.1c-0.3,0-0.5,0-0.7-0.1v-2.8c0-0.2-0.2-0.4-0.4-0.4
						c-0.2,0-0.4,0.2-0.4,0.4v2.4c-1-0.4-1.8-1.1-2.1-2c-0.1-0.4-0.1-1.1-0.5-1.3c-0.1-0.1-0.3-0.2-0.3-0.3l-0.1-1
						c0-0.1,0.1-0.3,0.3-0.3c0.1,0,0.3,0,0.4-0.1c0.1-2.6,0.8-5.3,3.9-5.3c3.2,0,3.8,2.7,3.9,5.3c0.1,0,0.2,0.1,0.4,0.1
						c0.2,0,0.3,0.2,0.3,0.3L123-23.3z M118.5-29.1c-2,0-2.9,1.3-3.1,4.2c0.6-0.2,1.4-0.4,3.1-0.4s2.6,0.2,3.1,0.4
						C121.5-27.9,120.5-29.1,118.5-29.1z"/>
				</g>
			</g>
			<g class="st1">
				<path class="st2" d="M71.2-18.9c-3,0-5.5-2.4-5.5-5.5s2.4-5.5,5.5-5.5c3,0,5.5,2.4,5.5,5.5S74.2-18.9,71.2-18.9z M71.2-28.9
					c-2.5,0-4.5,2-4.5,4.5s2,4.5,4.5,4.5s4.5-2,4.5-4.5S73.7-28.9,71.2-28.9z M72.5-23.1l-1.8-1.8L70-24.2c-0.2,0.2-0.5,0.2-0.7,0
					s-0.2-0.5,0-0.7l1.1-1.1c0.2-0.2,0.5-0.2,0.7,0l2.1,2.1c0.2,0.2,0.2,0.5,0,0.7C73-22.9,72.7-22.9,72.5-23.1z"/>
				<path class="st2" d="M8.9-23.3c0,0.2-0.2,0.2-0.3,0.3c-0.4,0.2-0.4,0.9-0.5,1.3c-0.3,0.9-1,1.6-2.1,2v-2.4
					c0-0.2-0.2-0.4-0.4-0.4c-0.2,0-0.4,0.2-0.4,0.4v2.8c-0.2,0-0.5,0.1-0.7,0.1c-0.3,0-0.5,0-0.7-0.1v-2.8c0-0.2-0.2-0.4-0.4-0.4
					S3-22.3,3-22.1v2.4c-1-0.4-1.8-1.1-2.1-2c-0.1-0.4-0.1-1.1-0.5-1.3c-0.1-0.1-0.3-0.2-0.3-0.3l-0.1-1c0-0.1,0.1-0.3,0.3-0.3
					c0.1,0,0.3,0,0.4-0.1C0.8-27.3,1.5-30,4.6-30c3.2,0,3.8,2.7,3.9,5.3c0.1,0,0.2,0.1,0.4,0.1s0.3,0.2,0.3,0.3L8.9-23.3z M4.5-29.1
					c-2,0-2.9,1.3-3.1,4.2c0.5-0.2,1.4-0.4,3.1-0.4s2.6,0.2,3.1,0.4C7.4-27.9,6.5-29.1,4.5-29.1z"/>
				<g>
					<path class="st2" d="M41.6-30.3c-0.1,0-0.2,0-0.3,0.1s-0.2,0.3-0.1,0.5l1.4,4.9c0,0.1,0.2,0.3,0.3,0.3l3.9,1.2l0.6-1l-1.1-3.5
						l4.1-1.4l-0.1,4.5l0,0c0,0,0.3,0.5,0.4,0.7l0,0l2.4,1.4c0.1,0,0.1,0.1,0.2,0.1c0.2,0,0.3-0.1,0.4-0.2l2.4-3.8
						c0.1-0.2,0.1-0.5-0.1-0.6l-4.9-3.1c0,0-0.1-0.1-0.3-0.1l0,0h-0.1c-0.1,0-4.4,1.5-4.9,1.7l-4-1.7C41.8-30.3,41.7-30.3,41.6-30.3
						L41.6-30.3z M42.4-29.1l3.1,1.3l1.1,3.3l-3.1-0.9L42.4-29.1z M51.3-29l3.8,2.4l-1.9,3.1l-2-1.2L51.3-29z"/>
					<path class="st2" d="M49-18.8c-1.2,0-2.2-1-2.2-2.2c0-0.3,0.1-0.7,0.2-1c0-0.1,1.8-2.8,1.8-2.8c0.1-0.1,0.2-0.1,0.3,0l1.8,2.8
						c0.1,0.3,0.2,0.7,0.2,1C51.2-19.8,50.2-18.8,49-18.8z M49-22.2c-0.7,0-1.3,0.6-1.3,1.3c0,0.7,0.6,1.3,1.3,1.3s1.3-0.6,1.3-1.3
						C50.3-21.6,49.7-22.2,49-22.2z"/>
				</g>
				<path class="st2" d="M31.6-24.6L29.8-23v2.7h-2.1v-0.8L25.4-19c-0.1,0.1-0.4,0.1-0.5,0l-6.2-5.7c-0.1-0.1-0.1-0.3,0-0.5l0.5-0.6
					c0.1-0.1,0.3-0.1,0.5,0l0.4,0.4v-3.8h-0.5v-1.2h11.1v1.3h-0.5v3.8l0.4-0.4c0.1-0.1,0.3-0.1,0.5,0l0.5,0.6
					C31.7-24.9,31.7-24.7,31.6-24.6z M26.2-25.4h-2.3c-0.2,0-0.3-0.2-0.3-0.3V-29h-2.7v4.6l3.9,3.6c0.1,0.1,0.4,0.1,0.5,0l3.9-3.6
					V-29h-2.7v3.3C26.6-25.6,26.4-25.4,26.2-25.4z"/>
			</g>
			<g class="st1">
				<g>
					<path class="st2" d="M16.7-2.1c-2.1,0-3.9-1.7-3.9-3.9c0-1.1,0.4-2,1.1-2.7l0,0l0,0c0.2-0.2,0.3-0.3,0.5-0.4h0.1
						c0.2-0.1,0.4-0.2,0.6-0.3h0.1c0.2-0.1,0.4-0.2,0.7-0.2l0,0c0.2,0,0.5-0.1,0.7-0.1c0.3,0,0.5,0,0.7,0.1l0,0
						c0.2,0,0.4,0.1,0.7,0.2h0.1c0.2,0.1,0.4,0.2,0.6,0.3h0.1C19-9,19.2-8.8,19.3-8.7l0,0l0,0C20-8,20.4-7,20.4-6
						C20.6-3.9,18.9-2.1,16.7-2.1z M16.7-2.8c1.8,0,3.2-1.4,3.2-3.2c0-0.7-0.2-1.3-0.6-1.9c-0.3,0.6-0.8,1-1.4,1.2
						c0.4,0.3,0.6,0.8,0.6,1.3c0,1-0.8,1.8-1.8,1.8s-1.8-0.8-1.8-1.8c0-0.5,0.2-1,0.6-1.3c-0.6-0.3-1.1-0.7-1.4-1.2
						c-0.4,0.5-0.6,1.2-0.6,1.9C13.5-4.3,15-2.8,16.7-2.8z M18.6-8.6c-0.1-0.1-0.1-0.1-0.2-0.2c-0.1,0-0.1-0.1-0.2-0.1
						c-0.9-0.5-2.1-0.5-3,0c-0.1,0-0.1,0.1-0.2,0.1c-0.1,0-0.2,0.1-0.2,0.2c-0.1,0-0.1,0.1-0.2,0.1c0.4,0.8,1.2,1.3,2.1,1.3
						c0.9,0,1.7-0.5,2.1-1.3C18.8-8.5,18.7-8.5,18.6-8.6z M16.7-6.4c-0.6,0-1.1,0.5-1.1,1.1s0.5,1.1,1.1,1.1s1.1-0.5,1.1-1.1
						S17.3-6.4,16.7-6.4z"/>
					<path class="st2" d="M26.6-5.7h-5c-0.2,0-0.4-0.2-0.4-0.4s0.2-0.4,0.4-0.4h5c0.2,0,0.4,0.2,0.4,0.4S26.8-5.7,26.6-5.7z"/>
					<path class="st2" d="M26.6-7.8h-5c-0.2,0-0.4-0.2-0.4-0.4c0-0.2,0.2-0.4,0.4-0.4h5c0.2,0,0.4,0.2,0.4,0.4
						C27-7.9,26.8-7.8,26.6-7.8z"/>
					<path class="st2" d="M18.5,0L18.5,0h-5.3c-1,0-1.8-0.8-1.8-1.8v-7.8c0-1,0.8-1.8,1.8-1.8h13.4c1,0,1.8,0.8,1.8,1.8v7.8
						c0,1-0.8,1.8-1.8,1.8H22l0,0 M22-0.7L22-0.7h4.6c0.6,0,1.1-0.5,1.1-1.1v-7.8c0-0.6-0.5-1.1-1.1-1.1H13.2
						c-0.6,0-1.1,0.5-1.1,1.1v7.8c0,0.6,0.5,1.1,1.1,1.1h5.3l0,0"/>
				</g>
				<path class="st2" d="M109.2-0.2c-3,0-5.5-2.4-5.5-5.5s2.4-5.5,5.5-5.5c3,0,5.5,2.4,5.5,5.5S112.3-0.2,109.2-0.2z M109.2-10.1
					c-2.5,0-4.5,2-4.5,4.5s2,4.5,4.5,4.5s4.5-2,4.5-4.5S111.7-10.1,109.2-10.1z M110.6-4.3l-1.8-1.8l-0.7,0.7
					c-0.2,0.2-0.5,0.2-0.7,0s-0.2-0.5,0-0.7l1.1-1.1c0.2-0.2,0.5-0.2,0.7,0l2.1,2.1c0.2,0.2,0.2,0.5,0,0.7
					C111.1-4.1,110.7-4.1,110.6-4.3z"/>
				<g>
					<path class="st2" d="M42.5-9.6c-0.5,0-0.8,0.4-0.8,0.4c-0.2,0.2-0.1,0.4,0.2,0.4H43c0.3,0,0.4-0.2,0.2-0.4
						C43.3-9.2,43-9.6,42.5-9.6z"/>
					<path class="st2" d="M46.9-4.5c0,0.2-0.2,0.2-0.3,0.3c-0.4,0.2-0.4,0.9-0.5,1.3c-0.3,0.9-1,1.6-2.1,2v-2.4
						c0-0.2-0.2-0.4-0.4-0.4s-0.4,0.2-0.4,0.4v2.8c-0.2,0-0.5,0.1-0.7,0.1c-0.3,0-0.5,0-0.7-0.1v-2.8c0-0.2-0.2-0.4-0.4-0.4
						S41-3.5,41-3.3v2.4c-1-0.4-1.8-1.1-2.1-2c-0.1-0.4-0.1-1.1-0.5-1.3c-0.1-0.1-0.3-0.2-0.3-0.3l-0.1-1c0-0.1,0.1-0.3,0.3-0.3
						c0.1,0,0.3,0,0.4-0.1c0.1-2.6,0.8-5.3,3.9-5.3c3.2,0,3.8,2.7,3.9,5.3c0.1,0,0.2,0.1,0.4,0.1s0.3,0.2,0.3,0.3L46.9-4.5z
						 M42.5-10.4c-2,0-2.9,1.3-3.1,4.2c0.6-0.2,1.4-0.4,3.1-0.4c1.7,0,2.6,0.2,3.1,0.4C45.4-9.1,44.5-10.4,42.5-10.4z"/>
				</g>
				<g>
					<path class="st2" d="M79.7-11.6c-0.1,0-0.2,0-0.3,0.1c-0.1,0.1-0.2,0.3-0.1,0.5l1.4,4.9c0,0.1,0.2,0.3,0.3,0.3l3.9,1.2l0.6-1
						l-1.1-3.5l4.1-1.4L88.4-6l0,0c0,0,0.3,0.5,0.4,0.7l0,0l2.4,1.4c0.1,0,0.1,0.1,0.2,0.1c0.2,0,0.3-0.1,0.4-0.2l2.4-3.8
						c0.1-0.2,0.1-0.5-0.1-0.6l-4.9-3.1c0,0-0.1-0.1-0.3-0.1l0,0h-0.1c-0.1,0-4.4,1.5-4.9,1.7l-4-1.7C79.8-11.6,79.7-11.6,79.7-11.6
						L79.7-11.6z M80.4-10.3L83.5-9l1.1,3.3l-3.1-0.9L80.4-10.3z M89.4-10.3l3.8,2.4l-1.9,3.1l-2-1.2L89.4-10.3z"/>
					<path class="st2" d="M87,0c-1.2,0-2.2-1-2.2-2.2c0-0.3,0.1-0.7,0.2-1C85-3.3,86.8-6,86.8-6c0.1-0.1,0.2-0.1,0.3,0l1.8,2.8
						c0.1,0.3,0.2,0.7,0.2,1C89.2-1,88.2,0,87,0z M87-3.5c-0.7,0-1.3,0.6-1.3,1.3c0,0.7,0.6,1.3,1.3,1.3c0.7,0,1.3-0.6,1.3-1.3
						S87.7-3.5,87-3.5z"/>
				</g>
				<path class="st2" d="M69.6-5.9l-1.8,1.6v2.7h-2.1v-0.8l-2.3,2.1c-0.1,0.1-0.4,0.1-0.5,0L56.7-6c-0.1-0.1-0.1-0.3,0-0.5l0.5-0.6
					c0.1-0.1,0.3-0.1,0.5,0l0.4,0.4v-3.8h-0.5v-1.2h11.1v1.2h-0.5v3.8l0.4-0.4c0.1-0.1,0.3-0.1,0.5,0l0.5,0.6
					C69.7-6.2,69.7-6,69.6-5.9z M64.3-6.7H62c-0.2,0-0.3-0.2-0.3-0.3v-3.3h-2.8v4.6l3.9,3.6c0.1,0.1,0.4,0.1,0.5,0l3.9-3.6v-4.6
					h-2.7V-7C64.6-6.8,64.4-6.7,64.3-6.7z"/>
			</g>
		</g>
	</g>
</pattern>
<pattern  id="SVGID_3_" xlink:href="#SVGID_1" patternTransform="matrix(2 0 0 -2 14597.6494 -32394.1055)">
</pattern>
<rect y="-0.5" class="st3" width="1440" height="629"/>
</svg>
